<?xml version="1.0" encoding="UTF-8"?>
<svg version="1.1" xmlns="http://www.w3.org/2000/svg" width="868" height="732">
<path d="M0 0 C130.68 0 261.36 0 396 0 C394.85931689 3.42204933 394.34615147 3.70644389 391.41796875 5.5546875 C390.61190186 6.07119873 389.80583496 6.58770996 388.9753418 7.11987305 C387.59536011 7.98866089 387.59536011 7.98866089 386.1875 8.875 C384.0718759 10.23145103 381.95739432 11.58968485 379.84375 12.94921875 C379.24934616 13.33042374 378.65494232 13.71162872 378.04252625 14.10438538 C369.03901972 19.8859508 360.11934402 25.79614376 351.1875 31.6875 C350.24644409 32.3077002 349.30538818 32.92790039 348.33581543 33.56689453 C335.21733074 42.2128273 322.12659372 50.89935575 309.06021118 59.62380981 C295.50190538 68.67672125 281.94143671 77.72650285 268.3352356 86.70733643 C266.78996228 87.72814857 265.24573475 88.75054573 263.7026062 89.77459717 C261.59628498 91.17186348 259.48623557 92.56329939 257.375 93.953125 C256.44235069 94.57427689 256.44235069 94.57427689 255.49085999 95.20797729 C251.22867998 98 251.22867998 98 249 98 C249 89.09 249 80.18 249 71 C194.55 71 140.1 71 84 71 C84.07069702 89.32442627 84.07069702 89.32442627 84.14282227 108.01904297 C84.28726289 147.1036845 84.38737812 186.18832707 84.45958797 225.27316617 C84.47084436 231.34389531 84.48249326 237.41462364 84.49438477 243.48535156 C84.49674556 244.69392744 84.49910635 245.90250332 84.50153869 247.14770271 C84.5407037 266.71848223 84.61166656 286.28902388 84.69437516 305.85966228 C84.77853032 325.94001608 84.8285272 346.02024529 84.84679645 366.10076821 C84.85914745 378.49230151 84.8981599 390.88316252 84.9712482 403.27448888 C85.01881149 411.77098455 85.03320335 420.26713252 85.0215124 428.76375167 C85.0157459 433.66659682 85.02460151 438.56826703 85.07284927 443.4709034 C85.11672787 447.96240982 85.11881191 452.45195426 85.08809005 456.94355203 C85.08429479 458.56556232 85.09564995 460.18769623 85.12394864 461.80946408 C85.2528802 469.65668093 85.12234465 475.65657441 79.65110683 481.78611946 C78.12124274 483.21305194 76.57206023 484.61969313 75 486 C73.81236916 487.3146946 72.6413689 488.644948 71.5 490 C68.10746907 493.89512811 64.64805799 497.72782763 61.1875 501.5625 C59.27445851 503.69417481 57.38112388 505.8401911 55.5 508 C52.10746907 511.89512811 48.64805799 515.72782763 45.1875 519.5625 C43.27445851 521.69417481 41.38112388 523.8401911 39.5 526 C36.10746907 529.89512811 32.64805799 533.72782763 29.1875 537.5625 C27.27445851 539.69417481 25.38112388 541.8401911 23.5 544 C20.11538166 547.88604328 16.66674159 551.71201269 13.20703125 555.53125 C10.60941695 558.43689997 8.09443973 561.40719361 5.60546875 564.40625 C4 566 4 566 0 568 C0 380.56 0 193.12 0 0 Z " fill="#FBFBFB" transform="translate(438,92)"/>
<path d="M0 0 C130.35 0 260.7 0 395 0 C395 187.44 395 374.88 395 568 C391.66980619 566.3349031 390.3534529 565.59001278 388.01171875 563.0234375 C387.47385742 562.43916992 386.93599609 561.85490234 386.38183594 561.25292969 C385.82270508 560.63321289 385.26357422 560.01349609 384.6875 559.375 C384.10645508 558.73981445 383.52541016 558.10462891 382.92675781 557.45019531 C379.46019845 553.64960333 376.03335351 549.81586496 372.671875 545.921875 C370.64241927 543.58894926 368.572353 541.29488755 366.5 539 C363.23609152 535.38323655 360.01209051 531.73610392 356.8125 528.0625 C354.72788836 525.69035571 352.61571356 523.34443935 350.5 521 C347.23609152 517.38323655 344.01209051 513.73610392 340.8125 510.0625 C338.72788836 507.69035571 336.61571356 505.34443935 334.5 503 C331.24223507 499.39004427 328.02286993 495.7511221 324.83203125 492.08203125 C321.9011905 488.75124635 318.90771052 485.4771284 315.91796875 482.19921875 C312.26396252 478.00939083 311.7505205 475.78048819 311.75390434 470.29020405 C311.75159665 469.6012628 311.74928897 468.91232155 311.74691135 468.20250329 C311.74158644 465.87687541 311.75061591 463.55152035 311.75949097 461.22590637 C311.75861941 459.5486476 311.75686935 457.87138908 311.75431263 456.19413203 C311.74982533 451.57183651 311.75786172 446.94963308 311.76786876 442.32734931 C311.7764811 437.34780538 311.77358467 432.36826693 311.77206421 427.38871765 C311.77101395 418.75688757 311.77730525 410.12508765 311.78853989 401.49326515 C311.80477287 389.01300092 311.81000063 376.53275132 311.81251587 364.05247768 C311.81689644 343.80556604 311.83021534 323.55867048 311.84912109 303.31176758 C311.86747054 283.64021892 311.88163162 263.96867463 311.89013672 244.29711914 C311.89066217 243.08518711 311.89118761 241.87325507 311.89172898 240.62459783 C311.894339 234.54487683 311.89686643 228.4651558 311.89935279 222.38543475 C311.92009655 171.92360888 311.95697237 121.46181275 312 71 C257.22 71 202.44 71 146 71 C146 79.91 146 88.82 146 98 C142.49575698 96.59830279 140.16182394 95.60418992 137.18334961 93.57104492 C136.4630809 93.08302902 135.74281219 92.59501312 135.00071716 92.09220886 C134.22575394 91.56033463 133.45079071 91.02846039 132.65234375 90.48046875 C131.82529434 89.91890579 130.99824493 89.35734283 130.14613342 88.77876282 C128.35108626 87.55966172 126.55739057 86.33856883 124.76489258 85.11572266 C119.90160564 81.79906259 115.02718271 78.49886725 110.15234375 75.19921875 C109.14400482 74.51644867 108.13566589 73.83367859 107.09677124 73.13021851 C96.79065081 66.16268166 86.40132518 59.32423098 76 52.5 C58.91385979 41.28501292 41.93421499 29.9202093 25.01757812 18.45117188 C23.32295758 17.30332501 21.62829759 16.15553638 19.93359375 15.0078125 C19.13988373 14.46920593 18.34617371 13.93059937 17.52841187 13.37567139 C12.33933295 9.86640304 7.09335285 6.49201363 1.72290039 3.26513672 C1.15434326 2.8476416 0.58578613 2.43014648 0 2 C0 1.34 0 0.68 0 0 Z " fill="#FDFDFD" transform="translate(22,92)"/>
<path d="M0 0 C130.35 0 260.7 0 395 0 C395 187.44 395 374.88 395 568 C391.66980619 566.3349031 390.3534529 565.59001278 388.01171875 563.0234375 C387.47385742 562.43916992 386.93599609 561.85490234 386.38183594 561.25292969 C385.82270508 560.63321289 385.26357422 560.01349609 384.6875 559.375 C384.10645508 558.73981445 383.52541016 558.10462891 382.92675781 557.45019531 C379.46019845 553.64960333 376.03335351 549.81586496 372.671875 545.921875 C370.64241927 543.58894926 368.572353 541.29488755 366.5 539 C363.23609152 535.38323655 360.01209051 531.73610392 356.8125 528.0625 C354.72788836 525.69035571 352.61571356 523.34443935 350.5 521 C347.23609152 517.38323655 344.01209051 513.73610392 340.8125 510.0625 C338.72788836 507.69035571 336.61571356 505.34443935 334.5 503 C331.24223507 499.39004427 328.02286993 495.7511221 324.83203125 492.08203125 C321.9011905 488.75124635 318.90771052 485.4771284 315.91796875 482.19921875 C312.26396252 478.00939083 311.7505205 475.78048819 311.75390434 470.29020405 C311.75159665 469.6012628 311.74928897 468.91232155 311.74691135 468.20250329 C311.74158644 465.87687541 311.75061591 463.55152035 311.75949097 461.22590637 C311.75861941 459.5486476 311.75686935 457.87138908 311.75431263 456.19413203 C311.74982533 451.57183651 311.75786172 446.94963308 311.76786876 442.32734931 C311.7764811 437.34780538 311.77358467 432.36826693 311.77206421 427.38871765 C311.77101395 418.75688757 311.77730525 410.12508765 311.78853989 401.49326515 C311.80477287 389.01300092 311.81000063 376.53275132 311.81251587 364.05247768 C311.81689644 343.80556604 311.83021534 323.55867048 311.84912109 303.31176758 C311.86747054 283.64021892 311.88163162 263.96867463 311.89013672 244.29711914 C311.89066217 243.08518711 311.89118761 241.87325507 311.89172898 240.62459783 C311.894339 234.54487683 311.89686643 228.4651558 311.89935279 222.38543475 C311.92009655 171.92360888 311.95697237 121.46181275 312 71 C257.22 71 202.44 71 146 71 C146 70.67 146 70.34 146 70 C201.11 70 256.22 70 313 70 C312.94332153 88.33844482 312.94332153 88.33844482 312.88549805 107.04736328 C312.77371393 146.18193855 312.72592936 185.31635843 312.71833299 224.45108712 C312.71709411 230.53168196 312.71528935 236.61227651 312.71313477 242.69287109 C312.71271534 243.90338835 312.71229592 245.1139056 312.71186379 246.36110519 C312.70372705 265.95186216 312.64976723 285.54223782 312.57881906 305.1328565 C312.50702065 325.24045247 312.48459042 345.34766835 312.50781661 365.45538127 C312.52059352 377.85939924 312.49504247 390.26211473 312.42018137 402.66591845 C312.37251105 411.17618177 312.372873 419.68560657 312.41065188 428.19591595 C312.431031 433.10372246 312.43057292 438.009143 312.37295341 442.91670609 C312.320575 447.41785957 312.32905058 451.91480669 312.38424657 456.41588865 C312.39368259 458.03661112 312.38151861 459.65764795 312.3445638 461.27797653 C312.16443571 469.72659327 312.83517548 475.45110414 318.57921614 481.95411312 C320.81192909 484.26472384 323.1188109 486.46690689 325.50376806 488.61942016 C327.40437872 490.37312204 329.0857321 492.27299743 330.75 494.25 C333.29711438 497.20061765 335.88752237 500.10698786 338.5 503 C341.76390848 506.61676345 344.98790949 510.26389608 348.1875 513.9375 C350.27211164 516.30964429 352.38428644 518.65556065 354.5 521 C357.76390848 524.61676345 360.98790949 528.26389608 364.1875 531.9375 C366.27211164 534.30964429 368.38428644 536.65556065 370.5 539 C373.75776493 542.60995573 376.97713007 546.2488779 380.16796875 549.91796875 C383.0988095 553.24875365 386.09228948 556.5228716 389.08203125 559.80078125 C391 562 391 562 393 565 C393.33 378.88 393.66 192.76 394 1 C198.97 1.495 198.97 1.495 0 2 C0 1.34 0 0.68 0 0 Z " fill="#4D4D4D" transform="translate(22,92)"/>
<path d="M0 0 C130.68 0 261.36 0 396 0 C394.72496084 3.82511749 393.2814906 4.42268265 389.94140625 6.609375 C388.91595703 7.28097656 387.89050781 7.95257813 386.83398438 8.64453125 C385.21459961 9.68673828 385.21459961 9.68673828 383.5625 10.75 C382.48677734 11.46027344 381.41105469 12.17054687 380.30273438 12.90234375 C378.76262695 13.90201172 378.76262695 13.90201172 377.19140625 14.921875 C376.24467041 15.53643555 375.29793457 16.15099609 374.32250977 16.78417969 C373.55608154 17.18540039 372.78965332 17.58662109 372 18 C371.34 17.67 370.68 17.34 370 17 C377.26 12.05 384.52 7.1 392 2 C198.95 1.505 198.95 1.505 2 1 C2.33 187.78 2.66 374.56 3 567 C2.01 567.33 1.02 567.66 0 568 C0 380.56 0 193.12 0 0 Z " fill="#3C3C3C" transform="translate(438,92)"/>
<path d="M0 0 C55.11 0 110.22 0 167 0 C166.94332153 18.33844482 166.94332153 18.33844482 166.88549805 37.04736328 C166.77371393 76.18193855 166.72592936 115.31635843 166.71833299 154.45108712 C166.71709411 160.53168196 166.71528935 166.61227651 166.71313477 172.69287109 C166.71271534 173.90338835 166.71229592 175.1139056 166.71186379 176.36110519 C166.70372705 195.95186216 166.64976723 215.54223782 166.57881906 235.1328565 C166.50702065 255.24045247 166.48459042 275.34766835 166.50781661 295.45538127 C166.52059352 307.85939924 166.49504247 320.26211473 166.42018137 332.66591845 C166.37251105 341.17618177 166.372873 349.68560657 166.41065188 358.19591595 C166.431031 363.10372246 166.43057292 368.009143 166.37295341 372.91670609 C166.320575 377.41785957 166.32905058 381.91480669 166.38424657 386.41588865 C166.39368259 388.03661112 166.38151861 389.65764795 166.3445638 391.27797653 C166.16443571 399.72659327 166.83517548 405.45110414 172.57921614 411.95411312 C174.81192909 414.26472384 177.1188109 416.46690689 179.50376806 418.61942016 C181.40437872 420.37312204 183.0857321 422.27299743 184.75 424.25 C187.29711438 427.20061765 189.88752237 430.10698786 192.5 433 C195.76390848 436.61676345 198.98790949 440.26389608 202.1875 443.9375 C204.27211164 446.30964429 206.38428644 448.65556065 208.5 451 C211.76390848 454.61676345 214.98790949 458.26389608 218.1875 461.9375 C220.27211164 464.30964429 222.38428644 466.65556065 224.5 469 C227.75911514 472.61145191 230.98316515 476.24871293 234.16796875 479.92578125 C235.54459068 481.48438732 236.9476517 483.01970456 238.36328125 484.54296875 C239.17152344 485.41566406 239.97976563 486.28835938 240.8125 487.1875 C241.56144531 487.98542969 242.31039062 488.78335937 243.08203125 489.60546875 C245.00810563 492.01011966 246.02480663 494.09505891 247 497 C242.5213361 493.34394784 238.62732725 489.60251004 234.8828125 485.203125 C232.79700323 482.76246851 230.65414408 480.38051176 228.5 478 C225.23609152 474.38323655 222.01209051 470.73610392 218.8125 467.0625 C216.72788836 464.69035571 214.61571356 462.34443935 212.5 460 C209.23609152 456.38323655 206.01209051 452.73610392 202.8125 449.0625 C200.72788836 446.69035571 198.61571356 444.34443935 196.5 442 C193.23609152 438.38323655 190.01209051 434.73610392 186.8125 431.0625 C184.72788836 428.69035571 182.61571356 426.34443935 180.5 424 C172.15633577 414.74508234 172.15633577 414.74508234 169 411 C168.48151495 410.44402799 167.9630299 409.88805598 167.42883319 409.31523633 C165.47780101 406.15384518 165.62743053 403.87179182 165.63085651 400.16715622 C165.62739498 399.47706113 165.62393345 398.78696603 165.62036702 398.07595897 C165.61239558 395.75230689 165.62590985 393.42927237 165.63923645 391.10565186 C165.63792878 389.4275292 165.63530307 387.74940713 165.63146895 386.07128835 C165.62474448 381.45120874 165.63678356 376.83133682 165.65180314 372.21128368 C165.66473101 367.232439 165.66037634 362.2536065 165.65809631 357.27474976 C165.65652152 348.64564986 165.66595225 340.0166179 165.68280983 331.3875351 C165.70716736 318.91126469 165.71500177 306.43502722 165.7187738 293.95873562 C165.72534339 273.71791449 165.74531831 253.47712958 165.77368164 233.23632812 C165.80120909 213.57161643 165.8224491 193.90691457 165.83520508 174.2421875 C165.83638733 172.42468353 165.83638733 172.42468353 165.83759347 170.57046232 C165.84150852 164.49201199 165.84529966 158.41356159 165.84902918 152.33511114 C165.88014088 101.89004192 165.93545249 51.44503969 166 1 C111.22 1 56.44 1 0 1 C0 0.67 0 0.34 0 0 Z " fill="#232323" transform="translate(168,162)"/>
<path d="M0 0 C0.33 0 0.66 0 1 0 C1 8.91 1 17.82 1 27 C-4 25 -4 25 -5 23 C-3.68 23 -2.36 23 -1 23 C-0.67 15.41 -0.34 7.82 0 0 Z " fill="#C2C2C2" transform="translate(167,163)"/>
<path d="M0 0 C3.59634744 3.49359465 6.83451967 7.11098131 10 11 C6.49411644 10.43601004 5.01017608 9.33036227 2.75 6.625 C2.22921875 6.01914062 1.7084375 5.41328125 1.171875 4.7890625 C0 3 0 3 0 0 Z " fill="#2C2C2C" transform="translate(387,626)"/>
<path d="M0 0 C3.36591866 1.44253657 5.51047079 3.33264727 8 6 C7.67 6.99 7.34 7.98 7 9 C5.83037314 7.69013727 4.66437056 6.3770374 3.5 5.0625 C2.8503125 4.33160156 2.200625 3.60070312 1.53125 2.84765625 C0 1 0 1 0 0 Z " fill="#1B1B1B" transform="translate(395,637)"/>
<path d="M0 0 C3.36591866 1.44253657 5.51047079 3.33264727 8 6 C7.67 6.99 7.34 7.98 7 9 C5.83037314 7.69013727 4.66437056 6.3770374 3.5 5.0625 C2.8503125 4.33160156 2.200625 3.60070312 1.53125 2.84765625 C0 1 0 1 0 0 Z " fill="#1B1B1B" transform="translate(379,619)"/>
</svg>
